<svg width="200" height="50" viewBox="0 0 200 50" xmlns="http://www.w3.org/2000/svg">

	<path d="M25,38 C25,38 35,40 50,40 C65,40 75,38 75,38 L75,42 C75,42 65,44 50,44 C35,44 25,42 25,42 Z"
          fill="#00000020"/>

	<path d="M25,15 C25,15 35,13 50,13 L50,40 C35,40 25,38 25,38 Z"
          fill="#ffffff"
          stroke="#3a6ea5"
          stroke-width="1"/>

	<path d="M75,15 C75,15 65,13 50,13 L50,40 C65,40 75,38 75,38 Z"
          fill="#ffffff"
          stroke="#3a6ea5"
          stroke-width="1"/>

	<path d="M50,13 L50,40"
          stroke="#3a6ea5"
          stroke-width="2"/>

	<path d="M30,20 L45,20" stroke="#3a6ea5" stroke-width="1"/>
	<path d="M30,24 L45,24" stroke="#3a6ea5" stroke-width="1"/>
	<path d="M30,28 L45,28" stroke="#3a6ea5" stroke-width="1"/>
	<path d="M30,32 L40,32" stroke="#3a6ea5" stroke-width="1"/>
	<path d="M55,20 L70,20" stroke="#3a6ea5" stroke-width="1"/>
	<path d="M55,24 L70,24" stroke="#3a6ea5" stroke-width="1"/>
	<path d="M55,28 L70,28" stroke="#3a6ea5" stroke-width="1"/>
	<path d="M55,32 L65,32" stroke="#3a6ea5" stroke-width="1"/>

	<path d="M80,15 L85,13 L90,15 L90,35 L85,37 L80,35 Z"
          fill="#6a75a8"/>

	<path d="M80,35 L85,37 L90,35 L85,42 Z"
          fill="#b06a8a"/>

	<path d="M80,15 L85,13 L90,15 L90,12 L85,10 L80,12 Z"
          fill="#f8d7da"/>

	<path d="M82,15 L88,15"
          stroke="#ffffff"
          stroke-width="1"/>

	<path d="M30,17 C35,16 40,15.5 45,15.5"
          stroke="#ffffff"
          stroke-width="0.5"
          opacity="0.5"/>
	<path d="M55,17 C60,16 65,15.5 70,15.5"
          stroke="#ffffff"
          stroke-width="0.5"
          opacity="0.5"/>

	<text x="100" y="28"
          font-family="Arial, sans-serif"
          font-size="16"
          font-weight="bold"
          fill="#3a6ea5">
	</text>
	<text x="100" y="38"
          font-family="Arial, sans-serif"
          font-size="10"
          fill="#6a75a8">
	</text>
</svg>
